# xmcd
#
# Track frame offsets: 
#        150
#        14015
#        32665
#        48610
#        61373
#        71305
#        84930
#        99388
#        115278
#        130015
#
# Disc length: 1982 seconds
#
# Revision: 2
# Processed by: cddbd v1.4PL0 Copyright (c) Steve Scherf et al.
# Submitted via: ExactAudioCopy v0.90b4
#
DISCID=7e07bc0a
DTITLE=Rick Trevino - Un Rayo De Luz
DYEAR=1900
DGENRE=Country
TTITLE0=Perdi La Partida
TTITLE1=Un Rayo De Luz (Bilingual)
TTITLE2=Tu Para Mi
TTITLE3=Eso Me Dijo
TTITLE4=Corazon Sonador
TTITLE5=Me La Guardan Para Mi
TTITLE6=Alivia El Dolor
TTITLE7=Tu Eres Mi Verdad
TTITLE8=Ella No Podra Decir Que No Me Vio Llorar (Bilingual)
TTITLE9=Un Rayo De Luz
EXTD=
EXTT0=
EXTT1=
EXTT2=
EXTT3=
EXTT4=
EXTT5=
EXTT6=
EXTT7=
EXTT8=
EXTT9=
PLAYORDER=
